<svg width="39" height="27" viewBox="0 0 39 27" fill="none" xmlns="http://www.w3.org/2000/svg">
<path d="M28.4697 6.44001L28.7851 6.57556C28.9185 6.63291 29.0572 6.65998 29.1938 6.65998C29.5951 6.65998 29.9771 6.42537 30.1457 6.03352C30.3717 5.50835 30.1289 4.89949 29.6034 4.67373L29.2879 4.53813C28.7624 4.31232 28.1533 4.55501 27.9274 5.08017C27.7014 5.60539 27.9442 6.2142 28.4697 6.44001Z" fill="#A049C1"/>
<path d="M37.5696 14.739V8.7784C37.5696 8.20671 37.106 7.74328 36.5339 7.74328H18.7848C18.2128 7.74328 17.7491 8.20671 17.7491 8.7784C17.7491 9.3501 18.2128 9.81352 18.7848 9.81352H31.5025L18.7848 15.2781L3.658 8.7784L18.7848 2.27872L25.5747 5.19616C26.1002 5.42192 26.7093 5.17923 26.9352 4.65401C27.1611 4.12885 26.9182 3.51999 26.3928 3.29423L19.1938 0.200977C18.9327 0.0887695 18.6368 0.0887695 18.3757 0.200977L0.626592 7.82744C0.246385 7.99083 -6.10352e-05 8.36477 -6.10352e-05 8.7784C-6.10352e-05 9.19204 0.246385 9.56603 0.626592 9.72937L18.3757 17.3557C18.5063 17.4118 18.6456 17.4399 18.7848 17.4399C18.924 17.4399 19.0633 17.4118 19.1938 17.3557L28.9626 13.1583L28.9628 20.321C23.2623 25.5922 14.3071 25.5922 8.60675 20.321L8.60681 18.4939C8.60681 17.9222 8.14312 17.4587 7.5711 17.4587C6.99913 17.4587 6.53539 17.9222 6.53539 18.4938L6.53534 20.7645C6.53534 21.0426 6.64735 21.309 6.84611 21.5037C10.0528 24.6447 14.2926 26.3746 18.7847 26.3746C23.2769 26.3746 27.5168 24.6447 30.7234 21.5038C30.9222 21.3091 31.0342 21.0427 31.0342 20.7645L31.034 12.2683L35.4982 10.3501V14.7389C34.6544 15.1308 34.0677 15.9855 34.0677 16.975C34.0677 17.9905 34.826 20.6621 36.5339 20.6621C38.2417 20.6621 38.9999 17.9905 38.9999 16.975C39 15.9856 38.4134 15.1309 37.5696 14.739ZM36.5339 18.312C36.3327 17.9169 36.1392 17.3065 36.1392 16.9751C36.1392 16.7575 36.3163 16.5805 36.5339 16.5805C36.7516 16.5805 36.9286 16.7575 36.9286 16.9751C36.9286 17.3065 36.735 17.9169 36.5339 18.312Z" fill="#A049C1"/>
<path d="M7.57115 16.3806C8.14317 16.3806 8.60686 15.9172 8.60686 15.3455V15.0011C8.60686 14.4294 8.14317 13.966 7.57115 13.966C6.99913 13.966 6.53545 14.4294 6.53545 15.0011V15.3455C6.53545 15.9172 6.99913 16.3806 7.57115 16.3806Z" fill="#A049C1"/>
</svg>
