<svg width="27" height="28" viewBox="0 0 27 28" fill="none" xmlns="http://www.w3.org/2000/svg">
<path d="M8.44061 20.3899L8.60305 20.2257C8.88308 19.9429 8.88308 19.4845 8.60305 19.2017C8.32302 18.9189 7.86904 18.9189 7.58901 19.2017L7.42657 19.3658C7.14655 19.6486 7.14655 20.1071 7.42657 20.3899C7.56661 20.5312 7.75009 20.6019 7.93361 20.6019C8.11713 20.6019 8.30061 20.5312 8.44061 20.3899Z" fill="#A049C1"/>
<path d="M10.1457 18.6678L18.0846 10.6503C18.3646 10.3675 18.3646 9.90907 18.0846 9.62626C17.8045 9.34349 17.3505 9.34349 17.0705 9.62626L9.13165 17.6438C8.85162 17.9266 8.85162 18.3851 9.13165 18.6678C9.27165 18.8093 9.4551 18.8799 9.63865 18.8799C9.82214 18.8799 10.0057 18.8092 10.1457 18.6678Z" fill="#A049C1"/>
<path d="M26.1696 23.7655C26.0724 23.3778 25.6823 23.1431 25.2985 23.2413C24.9147 23.3395 24.6823 23.7334 24.7795 24.1211L25.2923 26.1656L20.2681 24.8803L14.514 19.069L15.8827 17.6867L18.5593 20.3898C18.6993 20.5312 18.8828 20.6019 19.0663 20.6019C19.2498 20.6019 19.4333 20.5312 19.5733 20.3898C19.8533 20.107 19.8533 19.6485 19.5733 19.3657L16.8968 16.6627L18.2656 15.2803L23.6523 20.7206L21.2522 23.1444C20.9722 23.4272 20.9722 23.8857 21.2522 24.1685C21.3922 24.3099 21.5757 24.3806 21.7592 24.3806C21.9427 24.3806 22.1262 24.3099 22.2663 24.1685L25.1734 21.2326C25.3078 21.0968 25.3834 20.9126 25.3834 20.7205C25.3834 20.5284 25.3078 20.3443 25.1734 20.2085L19.2795 14.2563L26.79 6.67131C27.07 6.38851 27.07 5.93003 26.79 5.64726L22.0244 0.83454C21.7444 0.551735 21.2904 0.551735 21.0105 0.83454L13.5 8.41949L5.98947 0.83454C5.70944 0.551735 5.25547 0.551735 4.97551 0.83454L0.209961 5.6473C-0.0700683 5.9301 -0.0700683 6.38858 0.209961 6.67135L7.72045 14.2563L1.82661 20.2085C1.69217 20.3443 1.6166 20.5285 1.6166 20.7206C1.6166 20.9126 1.69213 21.0968 1.82661 21.2326L4.45134 23.8834C4.73137 24.1662 5.18538 24.1662 5.46534 23.8834C5.74537 23.6006 5.74537 23.142 5.46534 22.8593L3.34761 20.7206L18.412 5.50686L22.1636 9.29553L6.73173 24.8803L1.70755 26.1656L2.42223 23.3162C2.51946 22.9286 2.28711 22.5347 1.90322 22.4365C1.51933 22.3383 1.12935 22.573 1.03209 22.9606L0.0219243 26.9881C-0.0400972 27.2355 0.0313172 27.4976 0.209997 27.678C0.346157 27.8155 0.529211 27.8901 0.717032 27.8901C0.775648 27.8901 0.834801 27.8828 0.893058 27.8679L7.27522 26.2352C7.40045 26.2032 7.51481 26.1376 7.60612 26.0453L13.5 20.0931L19.3937 26.0453C19.4851 26.1376 19.5994 26.2032 19.7247 26.2352L26.1068 27.8679C26.1651 27.8828 26.2242 27.8901 26.2829 27.8901C26.4706 27.8901 26.6538 27.8155 26.7899 27.678C26.9685 27.4976 27.04 27.2355 26.978 26.9881L26.1696 23.7655ZM5.48247 2.37062L7.57393 4.48277L3.82238 8.27144L1.73099 6.15932L5.48247 2.37062ZM4.83637 9.29549L8.58796 5.50682L12.486 9.4435L11.1172 10.8259L9.92931 9.62623C9.64929 9.34346 9.19527 9.34346 8.91528 9.62623C8.63525 9.90904 8.63525 10.3675 8.91528 10.6503L10.1032 11.8499L8.73441 13.2322L4.83637 9.29549ZM19.426 4.48277L21.5175 2.37062L25.269 6.15932L23.1776 8.27144L19.426 4.48277Z" fill="#A049C1"/>
</svg>
