<svg width="35" height="22" viewBox="0 0 35 22" fill="none" xmlns="http://www.w3.org/2000/svg">
<path d="M34.0702 14.6742H32.373C32.151 11.0074 30.632 7.59107 28.0376 4.97098C25.2229 2.12837 21.4805 0.562866 17.4999 0.562866C13.5193 0.562866 9.77698 2.12837 6.96231 4.97093C4.36785 7.59107 2.84895 11.0074 2.6269 14.6741H0.929638C0.416165 14.6741 -6.10352e-05 15.0945 -6.10352e-05 15.613V20.249C-6.10352e-05 20.7675 0.416165 21.1879 0.929638 21.1879H31.3085C31.822 21.1879 32.2382 20.7675 32.2382 20.249V18.8921C32.2382 18.3736 31.822 17.9532 31.3085 17.9532C30.795 17.9532 30.3788 18.3736 30.3788 18.8921V19.3101H26.7147V18.8921C26.7147 18.3736 26.2985 17.9532 25.785 17.9532C25.2716 17.9532 24.8553 18.3736 24.8553 18.8921V19.3101H21.1913V18.8921C21.1913 18.3736 20.7751 17.9532 20.2616 17.9532C19.7481 17.9532 19.3319 18.3736 19.3319 18.8921V19.3101H15.6679V18.8921C15.6679 18.3736 15.2517 17.9532 14.7382 17.9532C14.2247 17.9532 13.8085 18.3736 13.8085 18.8921V19.3101H10.1445V18.8921C10.1445 18.3736 9.72831 17.9532 9.21484 17.9532C8.70136 17.9532 8.28514 18.3736 8.28514 18.8921V19.3101H4.6211V18.8921C4.6211 18.3736 4.20487 17.9532 3.6914 17.9532C3.17793 17.9532 2.7617 18.3736 2.7617 18.8921V19.3101H1.85934V16.5519H33.1405V20.249C33.1405 20.7675 33.5568 21.1879 34.0702 21.1879C34.5837 21.1879 34.9999 20.7675 34.9999 20.249V15.613C34.9999 15.0945 34.5837 14.6742 34.0702 14.6742ZM4.83893 12.4456L5.15568 12.5496C5.2512 12.5809 5.34798 12.5958 5.44319 12.5958C5.8351 12.5958 6.19954 12.3435 6.32724 11.9468C6.48589 11.4536 6.21865 10.9239 5.73032 10.7637L5.41478 10.6602C5.69764 9.95888 6.03857 9.2876 6.43169 8.65228L6.69735 8.84715C6.86237 8.96823 7.05352 9.02653 7.24299 9.02653C7.5305 9.02653 7.81401 8.89227 7.99591 8.63942C8.29769 8.21991 8.20555 7.63276 7.79016 7.32794L7.5265 7.13448C8.00688 6.55911 8.5349 6.02581 9.10466 5.54067L9.29628 5.80699C9.47817 6.05984 9.76168 6.19406 10.0491 6.19406C10.2386 6.19406 10.4299 6.13575 10.5949 6.01463C11.0103 5.70981 11.1023 5.12266 10.8005 4.70316L10.6076 4.435C11.2366 4.03798 11.9013 3.69363 12.5958 3.40802L12.6983 3.72673C12.826 4.12352 13.1904 4.37571 13.5823 4.37571C13.6775 4.37571 13.7744 4.36083 13.8699 4.32947C14.3582 4.16919 14.6254 3.63951 14.4667 3.14634L14.3638 2.82655C15.0782 2.64778 15.8154 2.52849 16.5703 2.4745L16.5704 2.80997C16.5704 3.32849 16.9867 3.74889 17.5001 3.74884C18.0136 3.7488 18.4298 3.3284 18.4298 2.80988L18.4297 2.47455C19.1846 2.52849 19.9219 2.64782 20.6363 2.82659L20.5334 3.14653C20.3747 3.63969 20.642 4.16938 21.1303 4.32961C21.2258 4.36092 21.3226 4.3758 21.4178 4.3758C21.8097 4.3758 22.1741 4.12352 22.3018 3.72673L22.4043 3.40816C23.0987 3.69377 23.7634 4.03812 24.3925 4.43514L24.1996 4.70334C23.8978 5.1229 23.9899 5.71005 24.4053 6.01482C24.5703 6.13589 24.7615 6.19415 24.951 6.19415C25.2385 6.19415 25.522 6.05989 25.7039 5.80699L25.8953 5.54076C26.4651 6.02585 26.9932 6.55916 27.4735 7.13453L27.2098 7.32804C26.7944 7.63286 26.7024 8.22001 27.0042 8.63951C27.1861 8.89236 27.4696 9.02658 27.7571 9.02658C27.9465 9.02658 28.1377 8.96827 28.3028 8.84715L28.5683 8.65233C28.9614 9.2876 29.3024 9.95888 29.5852 10.6602L29.2696 10.7638C28.7813 10.924 28.5141 11.4537 28.6728 11.9468C28.8005 12.3437 29.1649 12.5958 29.5568 12.5958C29.652 12.5958 29.7489 12.581 29.8444 12.5496L30.1611 12.4457C30.3381 13.1672 30.4563 13.9117 30.5097 14.6741H10.6325C11.0882 11.2574 13.994 8.61435 17.4999 8.61435C19.4135 8.61435 21.1949 9.38487 22.516 10.784C22.8703 11.1592 23.4588 11.1735 23.8304 10.8156C24.202 10.4577 24.2159 9.86339 23.8616 9.48811C23.0495 8.62811 22.0933 7.95148 21.0194 7.47709C19.9071 6.98571 18.723 6.73657 17.4999 6.73657C12.9674 6.73657 9.22557 10.2194 8.7597 14.6742H4.49029C4.54375 13.9117 4.66191 13.1671 4.83893 12.4456Z" fill="#A049C1"/>
<path d="M23.8853 12.8883C23.9212 12.9739 23.9558 13.0614 23.9882 13.1483C24.1284 13.5248 24.4824 13.7569 24.8585 13.7569C24.9673 13.7569 25.0779 13.7375 25.1857 13.6965C25.6663 13.5139 25.9093 12.9724 25.7285 12.4871C25.6873 12.3765 25.6433 12.2653 25.5977 12.1564C25.3976 11.6788 24.852 11.4555 24.3792 11.6576C23.9063 11.8598 23.6852 12.4107 23.8853 12.8883Z" fill="#A049C1"/>
</svg>
