<svg width="27" height="28" viewBox="0 0 27 28" fill="none" xmlns="http://www.w3.org/2000/svg">
<path d="M26.8465 11.664C26.6363 10.2658 26.215 8.91701 25.5944 7.65528C25.4918 7.44652 25.2959 7.30047 25.0681 7.26282C24.8403 7.22516 24.6086 7.30054 24.4453 7.46535L23.0692 8.85495L19.322 7.84098L18.318 4.05672L19.3222 3.04261C19.6785 3.24163 20.0278 3.46045 20.3685 3.69927C20.6938 3.92725 21.1405 3.84575 21.3664 3.51722C21.5921 3.18866 21.5114 2.73751 21.1861 2.50948C20.6609 2.14138 20.1116 1.81322 19.5435 1.52647C19.5185 1.51199 19.4928 1.49914 19.4666 1.48795C17.2788 0.401461 14.8146 -0.0746758 12.3552 0.135641C10.8011 0.268443 9.29709 0.666376 7.88482 1.31833C6.42297 1.99316 5.10046 2.92237 3.95405 4.08015C2.66553 5.38137 1.66779 6.89895 0.988502 8.59065C0.332555 10.2243 -6.10352e-05 11.9503 -6.10352e-05 13.7208C-6.10352e-05 15.4911 0.332555 17.2172 0.988502 18.8508C1.66779 20.5426 2.66553 22.0601 3.95405 23.3614C5.2425 24.6626 6.74515 25.6703 8.42031 26.3563C10.0379 27.0188 11.747 27.3547 13.5 27.3547C15.2531 27.3547 16.9622 27.0188 18.5798 26.3563C20.2549 25.6703 21.7576 24.6627 23.046 23.3614C25.0854 21.3017 26.397 18.6963 26.839 15.8268C27.0516 14.4461 27.0541 13.0455 26.8465 11.664ZM24.7225 9.23348C25.0692 10.116 25.3075 11.0243 25.4416 11.9404L24.5673 11.7038L24.0832 9.87906L24.7225 9.23348ZM22.698 10.2538L23.1822 12.0786L20.439 14.8489L18.6323 14.3599L17.6282 10.5757L18.9509 9.23985L22.698 10.2538ZM19.7493 21.3678L16.0022 20.3538L15.518 18.5291L16.9275 17.1057C17.2075 16.8229 17.2075 16.3643 16.9275 16.0816C16.6474 15.7988 16.1934 15.7988 15.9135 16.0816L14.5041 17.505L10.757 16.491L9.75289 12.7068L12.496 9.93651L16.2431 10.9505L17.3543 15.1386C17.4206 15.3885 17.6138 15.5837 17.8613 15.6506L20.068 16.2478L21.072 20.032L19.7493 21.3678ZM2.43272 15.7377L2.91691 17.5625L2.27623 18.2095C1.93652 17.3426 1.69593 16.4354 1.56139 15.5019L2.43272 15.7377ZM4.30201 17.1877L3.81782 15.3629L6.56099 12.5927L8.36776 13.0816L9.37184 16.8658L8.04912 18.2017L4.30201 17.1877ZM7.25074 6.07369L10.9979 7.08769L11.482 8.91241L8.73887 11.6827L6.93207 11.1938L5.92802 7.40952L7.25074 6.07369ZM15.1261 3.94257L16.9329 4.43152L17.9369 8.21578L16.6142 9.55161L12.8671 8.53761L12.383 6.71289L15.1261 3.94257ZM9.69596 24.4088L11.5028 24.8978L11.7363 25.7778C10.812 25.6419 9.91372 25.3989 9.05529 25.0558L9.69596 24.4088ZM11.874 23.4989L10.0672 23.0099L9.0631 19.2257L10.3858 17.8899L14.1329 18.9039L14.6171 20.7286L11.874 23.4989ZM17.304 3.03269L15.4972 2.54373L15.2623 1.6584C16.173 1.79385 17.0737 2.03505 17.9454 2.38497L17.304 3.03269ZM13.5073 1.52806C13.5862 1.52806 13.665 1.5293 13.7439 1.53085L14.1121 2.91853L11.369 5.68886L7.62193 4.67486L7.25501 3.29181C9.1619 2.12415 11.3294 1.52806 13.5073 1.52806ZM6.00388 4.17185L6.23676 5.04965L4.91408 6.38549L4.04414 6.15008C4.33037 5.78683 4.6381 5.43731 4.96799 5.10418C5.29878 4.77008 5.64506 4.45983 6.00388 4.17185ZM3.17126 7.41318L4.54288 7.78432L5.54697 11.5686L2.80387 14.3389L1.43691 13.969C1.4353 13.8863 1.43394 13.8036 1.43394 13.7208C1.4339 11.4614 2.03916 9.29626 3.17126 7.41318ZM2.92637 19.601L3.93085 18.5865L7.67797 19.6005L8.68202 23.3847L7.67746 24.3992C6.69532 23.8511 5.78337 23.1608 4.96796 22.3374C4.15259 21.5138 3.46907 20.5929 2.92637 19.601ZM13.5 25.9065C13.4179 25.9065 13.3361 25.9051 13.2543 25.9035L12.888 24.5229L15.631 21.7526L19.3781 22.7667L19.7456 24.1519C17.8811 25.2953 15.7372 25.9065 13.5 25.9065ZM20.9964 23.2705L20.7633 22.3919L22.086 21.056L22.9556 21.2913C22.6702 21.6542 22.3624 22.0037 22.0321 22.3374C21.7021 22.6705 21.3561 22.9813 20.9964 23.2705ZM23.8266 20.0277L22.4571 19.6571L21.4531 15.8729L24.1962 13.1026L25.5684 13.474C25.6137 15.7643 25.0183 18.0412 23.8266 20.0277Z" fill="#A049C1"/>
<path d="M22.0321 5.10414C22.172 5.24552 22.3555 5.31623 22.539 5.31623C22.7226 5.31623 22.906 5.24552 23.046 5.10414C23.3261 4.82134 23.3261 4.36287 23.046 4.08011C23.0172 4.05104 22.9884 4.02207 22.9594 3.99336C22.6769 3.71317 22.223 3.7173 21.9454 4.00259C21.668 4.28789 21.672 4.74636 21.9546 5.02659C21.9805 5.0523 22.0063 5.07815 22.0321 5.10414Z" fill="#A049C1"/>
</svg>
