<svg width="47" height="60" viewBox="0 0 47 60" fill="none" xmlns="http://www.w3.org/2000/svg">
<path d="M46.3637 23.1818C46.3637 10.3991 35.9646 0 23.1819 0C10.3992 0 0 10.3991 0 23.1818C0 28.8641 2.06323 34.0691 5.46955 38.1054C5.46814 38.1327 5.45459 38.1545 5.45459 38.1818V51C5.45459 51.5304 5.76141 52.0119 6.24145 52.2354L14.4233 56.0537L22.6051 59.8719C22.7878 59.9578 22.9842 60.0001 23.1819 60.0001C23.3783 60.0001 23.5761 59.9578 23.7587 59.8719L31.9406 56.0537L40.1224 52.2354C40.6024 52.0131 40.9092 51.5304 40.9092 51V38.1819C40.9092 38.1547 40.8956 38.1328 40.8943 38.1056C44.3005 34.0691 46.3637 28.8641 46.3637 23.1818ZM13.6364 52.6773L8.18182 50.1327V40.8245C9.81959 42.2195 11.655 43.3827 13.6364 44.2827V52.6773ZM30.0001 53.9495L23.1819 57.1309L16.3638 53.9495V45.3368C18.5211 46.0022 20.8092 46.3636 23.1819 46.3636C25.5546 46.3636 27.8429 46.0022 30.0001 45.3368V53.9495ZM38.1819 50.1314L32.7273 52.6774V44.2828C34.7087 43.3828 36.5441 42.2196 38.1819 40.8246V50.1314ZM23.1819 43.6364C11.9019 43.6364 2.72736 34.4604 2.72736 23.1818C2.72736 11.9031 11.9019 2.72723 23.1819 2.72723C34.4606 2.72723 43.6365 11.9031 43.6365 23.1818C43.6365 34.4604 34.4606 43.6364 23.1819 43.6364Z" fill="#9C29B2"/>
<path d="M23.1819 5.45459C13.4073 5.45459 5.45459 13.4073 5.45459 23.1818C5.45459 32.9564 13.4073 40.9091 23.1819 40.9091C32.9565 40.9091 40.9092 32.9564 40.9092 23.1818C40.9091 13.4073 32.9564 5.45459 23.1819 5.45459ZM23.1819 38.1819C14.9115 38.1819 8.18195 31.4523 8.18195 23.1819C8.18182 14.9114 14.9114 8.18182 23.1819 8.18182C31.4525 8.18182 38.1819 14.9114 38.1819 23.1818C38.1819 31.4523 31.4523 38.1819 23.1819 38.1819Z" fill="#9C29B2"/>
<path d="M31.8137 20.6224C31.6528 20.13 31.2261 19.77 30.7119 19.6951L26.3524 19.061L24.4024 15.1119C23.9442 14.1792 22.4156 14.1792 21.9575 15.1119L20.0075 19.061L15.648 19.6951C15.1339 19.7702 14.7071 20.1288 14.5461 20.6224C14.3866 21.116 14.5189 21.6588 14.8912 22.02L18.0479 25.0937L17.3034 29.4383C17.2161 29.9496 17.4261 30.4665 17.8448 30.7705C18.2676 31.0773 18.8252 31.1168 19.2807 30.8742L23.182 28.826L27.0821 30.8756C27.2811 30.9805 27.4994 31.0324 27.7162 31.0324C27.9985 31.0324 28.2793 30.9451 28.518 30.772C28.938 30.4666 29.148 29.9512 29.0594 29.4398L28.3149 25.0953L31.4689 22.0203C31.841 21.6574 31.9733 21.116 31.8137 20.6224ZM25.8996 23.6429C25.5791 23.9552 25.4318 24.4065 25.5082 24.8497L25.9065 27.176L23.8174 26.0782C23.6184 25.9733 23.4015 25.9214 23.1833 25.9214C22.9651 25.9214 22.7483 25.9731 22.5492 26.0782L20.4602 27.176L20.8584 24.8497C20.9347 24.4079 20.7875 23.9565 20.4671 23.6429L18.7775 21.9956L21.1108 21.6561C21.5553 21.592 21.9398 21.3124 22.1376 20.9101L23.1822 18.7951L24.2268 20.9101C24.4258 21.3124 24.8091 21.5919 25.2536 21.6561L27.5895 21.9956L25.8996 23.6429Z" fill="#9C29B2"/>
<path d="M16.3637 16.3636C17.1168 16.3636 17.7274 15.7531 17.7274 14.9999C17.7274 14.2468 17.1168 13.6362 16.3637 13.6362C15.6105 13.6362 15 14.2468 15 14.9999C15 15.7531 15.6105 16.3636 16.3637 16.3636Z" fill="#9C29B2"/>
<path d="M30 16.3636C30.7532 16.3636 31.3637 15.7531 31.3637 14.9999C31.3637 14.2468 30.7532 13.6362 30 13.6362C29.2469 13.6362 28.6364 14.2468 28.6364 14.9999C28.6364 15.7531 29.2469 16.3636 30 16.3636Z" fill="#9C29B2"/>
<path d="M13.6364 27.2728C14.3895 27.2728 15.0001 26.6622 15.0001 25.9091C15.0001 25.156 14.3895 24.5454 13.6364 24.5454C12.8832 24.5454 12.2727 25.156 12.2727 25.9091C12.2727 26.6622 12.8832 27.2728 13.6364 27.2728Z" fill="#9C29B2"/>
<path d="M32.7273 27.2728C33.4805 27.2728 34.091 26.6622 34.091 25.9091C34.091 25.156 33.4805 24.5454 32.7273 24.5454C31.9742 24.5454 31.3636 25.156 31.3636 25.9091C31.3636 26.6622 31.9742 27.2728 32.7273 27.2728Z" fill="#9C29B2"/>
<path d="M23.1819 34.0909C23.9351 34.0909 24.5456 33.4803 24.5456 32.7272C24.5456 31.9741 23.9351 31.3635 23.1819 31.3635C22.4288 31.3635 21.8182 31.9741 21.8182 32.7272C21.8182 33.4803 22.4288 34.0909 23.1819 34.0909Z" fill="#9C29B2"/>
</svg>
