<svg width="63" height="57" viewBox="0 0 63 57" fill="none" xmlns="http://www.w3.org/2000/svg">
<path d="M31.2156 26.3757C37.8495 26.3757 41.3211 16.5373 41.3211 11.2628C41.3211 5.05277 36.7869 0 31.2156 0C25.6424 0 21.1071 5.05277 21.1071 11.2628C21.1071 16.5363 24.5788 26.3757 31.2156 26.3757ZM31.2156 3.94286C34.6193 3.94286 37.3783 7.21937 37.3783 11.2628C37.3783 15.3042 34.6193 22.4329 31.2156 22.4329C27.81 22.4329 25.0509 15.3042 25.0509 11.2628C25.0509 7.21937 27.81 3.94286 31.2156 3.94286Z" fill="#9C29B2"/>
<path d="M41.3675 33.2698C40.6824 32.7789 39.8751 32.5591 39.0668 32.5591C38.3325 32.5591 37.5961 32.7799 36.9495 33.1919C35.2048 34.3048 33.2225 34.8992 31.2146 34.8992C29.2077 34.8992 27.2244 34.3156 25.4797 33.2028C24.8321 32.7907 24.0968 32.5896 23.3614 32.5896C22.5541 32.5896 21.7468 32.838 21.0618 33.3299C15.9804 36.98 12.9444 45.9362 12.9444 52.6016C12.9444 54.7791 14.7098 56.4242 16.8873 56.4242H45.5449C47.7224 56.4242 49.4878 54.7791 49.4878 52.6016C49.4858 45.9362 46.4498 36.9199 41.3675 33.2698ZM16.8853 52.4814C16.8853 46.5671 19.461 39.2136 23.3595 36.4142C25.669 37.8829 28.3501 38.7306 31.2136 38.7306C34.0781 38.7306 36.7602 37.8839 39.0668 36.4142C42.9653 39.2136 45.543 46.5671 45.543 52.4814H16.8853Z" fill="#9C29B2"/>
<path d="M27.39 40.4637C26.7927 40.2232 26.2042 39.9186 25.6443 39.5617C25.3043 39.3449 24.8666 39.3567 24.5394 39.5923C21.5191 41.7638 20.1707 44.9388 20.1707 49.8861C20.1707 50.4312 20.6123 50.8718 21.1564 50.8718C21.7015 50.8718 22.1421 50.4312 22.1421 49.8861C22.1421 45.8831 23.0588 43.3558 25.184 41.5834C25.6631 41.8525 26.154 42.0911 26.6527 42.2922C27.1594 42.4942 27.7331 42.2518 27.9361 41.7461C28.1392 41.2404 27.8957 40.6677 27.39 40.4637Z" fill="#9C29B2"/>
<path d="M31.2136 41.2078C30.8834 41.2078 30.5571 41.1901 30.2338 41.1605C29.6917 41.1073 29.2116 41.5094 29.1614 42.0516C29.1111 42.5937 29.5103 43.0738 30.0525 43.124C30.4359 43.1595 30.8223 43.1792 31.2136 43.1792C31.7577 43.1792 32.1993 42.7386 32.1993 42.1935C32.1993 41.6484 31.7577 41.2078 31.2136 41.2078Z" fill="#9C29B2"/>
<path d="M53.9521 33.9796C53.3902 33.6543 52.648 33.6493 52.0605 33.9263C51.8032 34.0476 50.8343 34.296 50.3138 34.429C49.6563 34.6006 49.0876 34.7376 48.6884 34.8894C47.6691 35.2738 47.1546 36.3936 47.538 37.4128C47.9205 38.431 49.056 38.914 50.0772 38.5345C50.2783 38.4586 50.8441 38.2507 51.2995 38.1353C51.8308 37.9963 52.2882 37.7548 52.6815 37.6395C55.7658 40.0979 58.1335 46.5681 58.7328 50.511H53.1694C52.0812 50.511 51.198 51.3942 51.198 52.4824C51.198 53.5706 52.0812 54.4538 53.1694 54.4538H60.8521C61.9403 54.4538 62.8235 53.8141 62.8235 52.7249C62.8235 47.0876 59.3676 37.1309 53.9521 33.9796Z" fill="#9C29B2"/>
<path d="M13.388 37.4344C13.7704 36.4152 13.2539 35.2718 12.2347 34.8893C12.1095 34.842 12.0257 34.7641 11.8029 34.5887C11.5605 34.4004 11.2293 34.1126 10.7699 33.873C10.1716 33.5615 9.45497 33.5192 8.87044 33.8592C3.45591 37.0106 0 47.0875 0 52.7248C0 53.813 0.8832 54.4528 1.97143 54.4528H5.85514C6.94337 54.4528 7.82657 53.5696 7.82657 52.4813C7.82657 51.3931 6.94337 50.5099 5.85514 50.5099H4.08973C4.67229 46.5671 6.92366 40.4477 9.8808 37.8543C10.1391 38.0258 10.4535 38.4428 10.8488 38.5907C11.87 38.9751 13.0045 38.4546 13.388 37.4344Z" fill="#9C29B2"/>
<path d="M16.3362 29.3298C16.5324 29.3545 16.7522 29.3683 16.9878 29.3683C18.6645 29.3683 21.2155 28.6586 23.0046 25.9754C23.6088 25.0696 23.3634 23.8453 22.4575 23.2421C21.5526 22.6388 20.3284 22.8842 19.7241 23.7891C18.5373 25.5703 16.9513 25.4353 16.8143 25.4165C16.7088 25.3988 16.6014 25.3909 16.494 25.3909C14.9769 25.3909 12.3027 20.073 12.3027 16.1922C12.3027 13.243 14.1825 10.8437 16.494 10.8437C17.5822 10.8437 18.4654 9.96054 18.4654 8.87231C18.4654 7.78408 17.5822 6.90088 16.494 6.90088C12.009 6.90088 8.35985 11.0695 8.35985 16.1922C8.35985 20.7748 11.384 29.1544 16.3362 29.3298Z" fill="#9C29B2"/>
<path d="M39.7962 23.2411C38.8894 23.8443 38.6449 25.0686 39.2492 25.9745C41.0373 28.6596 43.5883 29.3673 45.266 29.3673C45.5025 29.3673 45.7224 29.3535 45.9185 29.3289C50.8698 29.1534 53.8949 20.7738 53.8949 16.1903C53.8949 11.0675 50.2458 6.89893 45.7608 6.89893C44.6716 6.89893 43.7894 7.78213 43.7894 8.87035C43.7894 9.95858 44.6716 10.8418 45.7608 10.8418C48.0713 10.8418 49.9521 13.241 49.9521 16.1903C49.9521 20.072 47.2778 25.389 45.7608 25.389C45.6534 25.389 45.5449 25.3978 45.4395 25.4146C45.4237 25.4205 43.7618 25.6334 42.5306 23.7872C41.9254 22.8823 40.7021 22.6349 39.7962 23.2411Z" fill="#9C29B2"/>
</svg>
