<svg width="53" height="45" viewBox="0 0 53 45" fill="none" xmlns="http://www.w3.org/2000/svg">
<path d="M48.9231 0H4.07692C2.99604 0.00124041 1.95977 0.432644 1.19547 1.19957C0.431165 1.9665 0.00123617 3.00631 0 4.09091V40.9093C4.01201e-06 41.4466 0.10547 41.9785 0.310375 42.4749C0.51528 42.9712 0.815611 43.4222 1.19422 43.802C1.57282 44.1819 2.02229 44.4832 2.51695 44.6888C3.01161 44.8943 3.54178 45.0001 4.07718 45L7.48896 44.9996C7.87444 44.9996 8.252 44.8898 8.57784 44.6832C8.90368 44.4765 9.16443 44.1813 9.32985 43.832C10.3226 41.7333 11.8882 39.9602 13.845 38.7187C15.8018 37.4772 18.0695 36.8182 20.3846 36.8182C22.6998 36.8182 24.9674 37.4772 26.9242 38.7187C28.881 39.9602 30.4467 41.7333 31.4394 43.832C31.6048 44.1814 31.8656 44.4766 32.1915 44.6832C32.5174 44.8899 32.895 44.9996 33.2805 44.9996L48.9231 45C50.004 44.9988 51.0402 44.5674 51.8045 43.8004C52.5688 43.0335 52.9988 41.9937 53 40.9091V4.09091C52.9988 3.00631 52.5688 1.9665 51.8045 1.19957C51.0402 0.432644 50.004 0.00124041 48.9231 0ZM14.2692 26.5909C14.2692 25.3773 14.6279 24.1908 15.2999 23.1817C15.9718 22.1726 16.9269 21.3861 18.0444 20.9216C19.1618 20.4572 20.3914 20.3357 21.5777 20.5725C22.7639 20.8092 23.8536 21.3937 24.7088 22.2518C25.5641 23.11 26.1465 24.2034 26.3825 25.3938C26.6185 26.5841 26.4974 27.8179 26.0345 28.9392C25.5716 30.0605 24.7878 31.0188 23.7821 31.6931C22.7765 32.3674 21.5941 32.7273 20.3846 32.7273C18.7633 32.7254 17.2089 32.0783 16.0624 30.9279C14.916 29.7775 14.2711 28.2178 14.2692 26.5909ZM48.9231 40.9091L34.5095 40.9087C32.8068 37.972 30.2402 35.6359 27.1619 34.2209C28.7051 32.8422 29.7943 31.0255 30.2851 29.0116C30.7759 26.9976 30.6452 24.8816 29.9101 22.9439C29.1751 21.0063 27.8705 19.3385 26.1693 18.1618C24.4682 16.9851 22.4508 16.355 20.3846 16.355C18.3183 16.355 16.3009 16.9851 14.5998 18.1618C12.8986 19.3386 11.5941 21.0063 10.859 22.944C10.124 24.8816 9.99323 26.9977 10.484 29.0117C10.9749 31.0256 12.0641 32.8423 13.6073 34.2209C10.529 35.6361 7.96246 37.9722 6.25971 40.909L4.07692 40.9093V4.09091H48.9231V40.9091ZM8.15385 14.3182V10.2273C8.15385 9.68479 8.36862 9.16452 8.7509 8.78092C9.13319 8.39733 9.65168 8.18182 10.1923 8.18182H42.8077C43.3483 8.18182 43.8668 8.39733 44.2491 8.78092C44.6314 9.16452 44.8461 9.68479 44.8462 10.2273V34.7727C44.8461 35.3152 44.6314 35.8355 44.2491 36.2191C43.8668 36.6027 43.3483 36.8182 42.8077 36.8182H38.7308C38.1901 36.8182 37.6716 36.6027 37.2894 36.2191C36.9071 35.8355 36.6923 35.3152 36.6923 34.7727C36.6923 34.2302 36.9071 33.71 37.2894 33.3264C37.6716 32.9428 38.1901 32.7273 38.7308 32.7273H40.7692V12.2727H12.2308V14.3182C12.2308 14.8607 12.016 15.3809 11.6337 15.7645C11.2514 16.1481 10.7329 16.3636 10.1923 16.3636C9.65167 16.3636 9.13318 16.1481 8.7509 15.7645C8.36861 15.3809 8.15385 14.8607 8.15385 14.3182Z" fill="#9C29B2"/>
</svg>
