<svg width="60" height="50" viewBox="0 0 60 50" fill="none" xmlns="http://www.w3.org/2000/svg">
<path d="M30 33.4217C31.9962 33.4217 33.6198 31.7978 33.6198 29.8017C33.6198 27.8057 31.9962 26.1819 30 26.1819C28.0038 26.1819 26.3802 27.8057 26.3802 29.8017C26.3802 31.7978 28.0038 33.4217 30 33.4217Z" fill="#9C29B2"/>
<path d="M60 16.7107C60 14.7145 58.3762 13.0909 56.3802 13.0909C54.384 13.0909 52.7602 14.7145 52.7602 16.7107C52.7602 17.3582 52.9331 17.9651 53.2323 18.4915L49.9657 21.7582C48.9915 19.4655 48.5139 15.9301 48.385 13.2271C49.403 12.5857 50.0826 11.4547 50.0826 10.1653C50.0826 8.16929 48.4588 6.54545 46.4628 6.54545C44.4667 6.54545 42.8428 8.16929 42.8428 10.1653C42.8428 11.0648 43.1747 11.8869 43.7196 12.5208C41.6057 16.1618 38.6539 19.6665 36.822 21.698C35.2119 18.3386 33.3968 11.6537 32.2711 6.43455C33.0927 5.7705 33.6198 4.75596 33.6198 3.6198C33.6198 1.62364 31.9962 0 30 0C28.0038 0 26.3802 1.62364 26.3802 3.6198C26.3802 4.75596 26.9073 5.7705 27.7289 6.43455C26.6038 11.6541 24.7887 18.34 23.1778 21.6992C21.3469 19.6695 18.3966 16.1677 16.2802 12.5208C16.8253 11.8869 17.157 11.0648 17.157 10.1653C17.157 8.16929 15.5333 6.54545 13.5372 6.54545C11.5412 6.54545 9.91737 8.16929 9.91737 10.1653C9.91737 11.4556 10.5976 12.5865 11.6162 13.2277C11.4891 15.9305 11.0121 19.4657 10.0356 21.7594L6.76768 18.4917C7.06667 17.9653 7.2396 17.3584 7.2396 16.7109C7.2396 14.7147 5.61596 13.0911 3.6198 13.0911C1.62384 13.0909 0 14.7147 0 16.7107C0 18.1733 0.873535 19.4329 2.12505 20.0036C3.40828 26.5202 5.10768 35.8681 5.10768 37.9834V47.8018C5.10768 48.8972 5.99576 49.7852 7.09091 49.7852H52.9091C54.0046 49.7852 54.8925 48.8972 54.8925 47.8018V37.9834C54.8925 35.8685 56.5915 26.5204 57.8756 20.0036C59.1265 19.4329 60 18.1735 60 16.7107ZM8.96101 26.2954C9.73576 27.0697 10.9913 27.0697 11.7663 26.2954C13.6489 24.4123 14.6125 21.0352 15.1055 18.0036C18.3143 22.5368 21.8501 26.0933 22.0519 26.2954C22.8267 27.0697 24.0822 27.0697 24.8572 26.2954C26.8552 24.2972 28.6863 18.8246 30 13.9485C31.3137 18.8246 33.1448 24.2974 35.1428 26.2954C35.5149 26.6671 36.0194 26.8762 36.5455 26.8762C37.0715 26.8762 37.576 26.6671 37.9479 26.2954C38.1497 26.0933 41.6855 22.5368 44.8943 18.0036C45.3875 21.0352 46.3509 24.4123 48.2335 26.2954C49.0085 27.0697 50.264 27.0697 51.0388 26.2954L53.0071 24.3269C52.2707 28.2677 51.4212 33.0762 51.0796 36.0002H8.9202C8.57859 33.076 7.72909 28.2677 6.99293 24.3269L8.96101 26.2954ZM50.9257 45.8182H9.07434V39.9669H50.9257V45.8182Z" fill="#9C29B2"/>
</svg>
