<svg width="64" height="64" viewBox="0 0 64 64" fill="none" xmlns="http://www.w3.org/2000/svg">
<mask id="mask0_40_476" style="mask-type:alpha" maskUnits="userSpaceOnUse" x="0" y="0" width="64" height="64">
<rect width="64" height="64"/>
</mask>
<g mask="url(#mask0_40_476)">
<rect width="64" height="64" fill="#88C90D"/>
</g>
<g clip-path="url(#clip0_40_476)">
<path d="M27.6991 21.3388L28.5782 23.4488C28.7336 23.8218 29.0309 24.1179 29.4046 24.2718C29.7783 24.4257 30.1979 24.4248 30.5709 24.2693C30.944 24.1139 31.24 23.8166 31.3939 23.4429C31.5478 23.0692 31.5469 22.6496 31.3915 22.2766L26.3121 10.0861C26.1964 9.80836 26.0011 9.57108 25.7508 9.40417C25.5005 9.23726 25.2063 9.14819 24.9055 9.14819C24.6046 9.14819 24.3105 9.23726 24.0601 9.40417C23.8098 9.57108 23.6145 9.80836 23.4988 10.0861L18.4194 22.2766C18.3425 22.4613 18.3026 22.6594 18.3022 22.8595C18.3018 23.0596 18.3408 23.2579 18.417 23.4429C18.4932 23.6279 18.6051 23.7962 18.7463 23.938C18.8875 24.0798 19.0553 24.1924 19.24 24.2693C19.4247 24.3463 19.6228 24.3861 19.8229 24.3865C20.023 24.387 20.2213 24.348 20.4063 24.2718C20.5914 24.1956 20.7596 24.0837 20.9014 23.9425C21.0432 23.8012 21.1558 23.6335 21.2328 23.4488L22.1118 21.3388H27.6991ZM24.9054 14.634L26.4292 18.2912H23.3816L24.9054 14.634Z" fill="#88C90D"/>
<path d="M17.6673 39.6245H12.5879C12.1838 39.6245 11.7962 39.7851 11.5104 40.0708C11.2247 40.3566 11.0641 40.7442 11.0641 41.1483V53.3388C11.0641 53.7429 11.2247 54.1305 11.5104 54.4163C11.7962 54.7021 12.1838 54.8626 12.5879 54.8626H17.6673C18.55 54.8631 19.4139 54.6078 20.1546 54.1277C20.8953 53.6476 21.481 52.9632 21.841 52.1573C22.201 51.3514 22.3198 50.4584 22.183 49.5864C22.0463 48.7144 21.6599 47.9006 21.0705 47.2436C21.6599 46.5865 22.0463 45.7728 22.183 44.9007C22.3198 44.0287 22.201 43.1358 21.841 42.3298C21.481 41.5239 20.8953 40.8395 20.1546 40.3594C19.4139 39.8793 18.55 39.6241 17.6673 39.6245ZM14.1118 42.6721H17.6673C18.0714 42.6721 18.459 42.8327 18.7448 43.1184C19.0306 43.4042 19.1911 43.7918 19.1911 44.1959C19.1911 44.6001 19.0306 44.9877 18.7448 45.2734C18.459 45.5592 18.0714 45.7198 17.6673 45.7198H14.1118V42.6721ZM17.6673 51.815H14.1118V48.7674H17.6673C18.0714 48.7674 18.459 48.9279 18.7448 49.2137C19.0306 49.4995 19.1911 49.887 19.1911 50.2912C19.1911 50.6953 19.0306 51.0829 18.7448 51.3687C18.459 51.6544 18.0714 51.815 17.6673 51.815Z" fill="#88C90D"/>
<path d="M56.381 30.4762H40.1228C41.116 29.1593 41.6525 27.5543 41.6508 25.9048V7.61905C41.6485 5.59905 40.8451 3.66245 39.4167 2.23409C37.9884 0.805738 36.0517 0.00228545 34.0317 0H15.746C13.726 0.00228545 11.7894 0.805738 10.3611 2.23409C8.93272 3.66245 8.12927 5.59905 8.12698 7.61905V25.9048C8.12526 27.5543 8.66174 29.1593 9.65498 30.4762H7.61905C5.59905 30.4785 3.66245 31.2819 2.23409 32.7103C0.805738 34.1386 0.00228545 36.0752 0 38.0952V56.381C0.00228545 58.401 0.805738 60.3376 2.23409 61.7659C3.66245 63.1943 5.59905 63.9977 7.61905 64H25.9048C27.0881 63.9999 28.2552 63.724 29.3132 63.194C30.3713 62.664 31.2912 61.8947 32 60.9471C32.7088 61.8947 33.6287 62.664 34.6868 63.194C35.7448 63.724 36.9119 63.9999 38.0952 64H56.381C58.401 63.9977 60.3376 63.1943 61.7659 61.7659C63.1943 60.3376 63.9977 58.401 64 56.381V38.0952C63.9977 36.0752 63.1943 34.1386 61.7659 32.7103C60.3376 31.2819 58.401 30.4785 56.381 30.4762ZM11.1746 25.9048V7.61905C11.1759 6.40704 11.658 5.24506 12.515 4.38804C13.372 3.53103 14.534 3.04896 15.746 3.04762H34.0317C35.2438 3.04896 36.4057 3.53103 37.2628 4.38804C38.1198 5.24506 38.6018 6.40704 38.6032 7.61905V25.9048C38.6018 27.1168 38.1198 28.2787 37.2628 29.1358C36.4057 29.9928 35.2438 30.4748 34.0317 30.4762H15.746C14.534 30.4748 13.372 29.9928 12.515 29.1358C11.658 28.2787 11.1759 27.1168 11.1746 25.9048ZM32.0042 33.5238L32 33.5291L31.9958 33.5238H32.0042ZM25.9048 60.9524H7.61905C6.40704 60.951 5.24506 60.469 4.38804 59.612C3.53103 58.7549 3.04896 57.593 3.04762 56.381V38.0952C3.04896 36.8832 3.53103 35.7213 4.38804 34.8642C5.24506 34.0072 6.40704 33.5252 7.61905 33.5238H25.9048C27.1168 33.5252 28.2787 34.0072 29.1358 34.8642C29.9928 35.7213 30.4748 36.8832 30.4762 38.0952V56.381C30.4748 57.593 29.9928 58.7549 29.1358 59.612C28.2787 60.469 27.1168 60.951 25.9048 60.9524ZM60.9524 56.381C60.951 57.593 60.469 58.7549 59.612 59.612C58.7549 60.469 57.593 60.951 56.381 60.9524H38.0952C36.8832 60.951 35.7213 60.469 34.8642 59.612C34.0072 58.7549 33.5252 57.593 33.5238 56.381V38.0952C33.5252 36.8832 34.0072 35.7213 34.8642 34.8642C35.7213 34.0072 36.8832 33.5252 38.0952 33.5238H56.381C57.593 33.5252 58.7549 34.0072 59.612 34.8642C60.469 35.7213 60.951 36.8832 60.9524 38.0952V56.381Z" fill="#88C90D"/>
<path d="M47.2546 42.5452H51.3181C51.7222 42.5452 52.1098 42.3846 52.3956 42.0989C52.6814 41.8131 52.8419 41.4255 52.8419 41.0214C52.8419 40.6172 52.6814 40.2296 52.3956 39.9439C52.1098 39.6581 51.7222 39.4976 51.3181 39.4976H47.2546C45.7733 39.4993 44.3531 40.0885 43.3057 41.1359C42.2582 42.1834 41.669 43.6035 41.6673 45.0849V49.1484C41.669 50.6297 42.2582 52.0499 43.3056 53.0973C44.3531 54.1448 45.7733 54.734 47.2546 54.7357H51.3181C51.7222 54.7357 52.1098 54.5751 52.3956 54.2893C52.6814 54.0036 52.8419 53.616 52.8419 53.2118C52.8419 52.8077 52.6814 52.4201 52.3956 52.1343C52.1098 51.8486 51.7222 51.688 51.3181 51.688H47.2546C46.5813 51.6873 45.9357 51.4194 45.4596 50.9433C44.9835 50.4672 44.7157 49.8217 44.7149 49.1484V45.0849C44.7157 44.4115 44.9836 43.766 45.4597 43.2899C45.9358 42.8138 46.5813 42.546 47.2546 42.5452Z" fill="#88C90D"/>
</g>
<defs>
<clipPath id="clip0_40_476">
<rect width="64" height="64" fill="white"/>
</clipPath>
</defs>
</svg>
