<svg width="40" height="40" viewBox="0 0 40 40" fill="none" xmlns="http://www.w3.org/2000/svg">
<g clip-path="url(#clip0_66_311)">
<path d="M31.4994 2.11147C30.5042 1.17485 29.2306 0.725098 27.9471 0.725098C26.5021 0.725098 25.043 1.29478 23.955 2.38417L23.4881 2.85105L23.0212 2.38274C21.9333 1.29478 20.4741 0.725098 19.0292 0.725098C17.7456 0.725098 16.472 1.17485 15.4769 2.11147C13.2881 4.17175 13.2495 7.61839 15.3598 9.72865L23.4881 17.857L31.6164 9.72865C33.7267 7.61839 33.6881 4.17175 31.4994 2.11147Z" fill="white"/>
<path d="M39.478 21.9961C38.2287 21.1495 36.7566 21.3893 35.4531 22.1418C34.1495 22.8942 26.6651 29.2935 26.6651 29.2935L19.2978 29.2949C18.9551 29.2949 18.5839 28.9094 18.5839 28.5682C18.5839 28.167 18.9337 27.8543 19.2978 27.8543H23.8053C25.383 27.8543 27.1491 26.8263 27.1491 24.9987C27.1491 23.057 25.383 22.1432 23.8053 22.1432C21.0682 22.1432 20.5357 22.1546 20.5357 22.1546C19.4392 22.1546 18.3269 22.0889 17.4703 21.6306C16.328 21.0452 15.0116 20.714 13.6067 20.714C11.248 20.714 9.13633 21.6549 7.68857 23.1384L0 30.7084L8.56665 39.2751L11.4222 36.4195H25.8813C27.3205 36.4195 28.7097 35.8912 29.7848 34.9361L39.5751 23.9536C40.1733 23.4225 40.139 22.4459 39.478 21.9961Z" fill="white"/>
</g>
<defs>
<clipPath id="clip0_66_311">
<rect width="40" height="40" fill="white"/>
</clipPath>
</defs>
</svg>
