<svg width="93" height="74" viewBox="0 0 93 74" fill="none" xmlns="http://www.w3.org/2000/svg">
<path opacity="0.4" d="M84.7115 63.3995C93.4389 53.9275 92.5601 41.7638 92.5324 41.625V4.625C92.5324 3.39837 92.0451 2.22199 91.1777 1.35463C90.3104 0.487276 89.134 0 87.9074 0H60.1574C55.056 0 50.9074 4.14862 50.9074 9.25V41.625C50.9074 42.8516 51.3947 44.028 52.262 44.8954C53.1294 45.7627 54.3057 46.25 55.5324 46.25H69.7681C69.6704 48.5365 68.9872 50.7597 67.784 52.7065C65.4345 56.4111 61.0084 58.941 54.6213 60.2175L50.9074 60.9575V74H55.5324C68.4038 74 78.2226 70.4341 84.7115 63.3995ZM33.8041 63.3995C42.5361 53.9275 41.6528 41.7638 41.625 41.625V4.625C41.625 3.39837 41.1377 2.22199 40.2704 1.35463C39.403 0.487276 38.2266 0 37 0H9.25C4.14862 0 0 4.14862 0 9.25V41.625C0 42.8516 0.487275 44.028 1.35463 44.8954C2.22199 45.7627 3.39837 46.25 4.625 46.25H18.8608C18.763 48.5365 18.0798 50.7597 16.8766 52.7065C14.5271 56.4111 10.101 58.941 3.71387 60.2175L0 60.9575V74H4.625C17.4964 74 27.3153 70.4341 33.8041 63.3995Z" fill="white"/>
</svg>
